<svg width="49" height="48" viewBox="0 0 49 48" fill="none" xmlns="http://www.w3.org/2000/svg">
<g filter="url(#filter0_bi_6811_86949)">
<rect x="0.5" width="48" height="48" rx="24" fill="url(#paint0_linear_6811_86949)" fill-opacity="0.12"/>
<rect x="0.8" y="0.3" width="47.4" height="47.4" rx="23.7" stroke="url(#paint1_linear_6811_86949)" stroke-width="0.6"/>
</g>
<mask id="mask0_6811_86949" style="mask-type:alpha" maskUnits="userSpaceOnUse" x="0" y="0" width="49" height="48">
<rect x="0.5" width="48" height="48" rx="24" fill="#181D4B"/>
<rect x="0.5" width="48" height="48" rx="24" fill="url(#paint2_linear_6811_86949)" fill-opacity="0.52"/>
</mask>
<g mask="url(#mask0_6811_86949)">
</g>
<path d="M33.4469 20.305C33.4369 19.5476 33.2951 18.7977 33.0279 18.089C32.7963 17.4911 32.4425 16.9482 31.9891 16.4948C31.5358 16.0414 30.9928 15.6876 30.3949 15.456C29.6953 15.1933 28.9561 15.0513 28.2089 15.036C27.2469 14.993 26.9419 14.981 24.4999 14.981C22.0579 14.981 21.7449 14.981 20.7899 15.036C20.0431 15.0514 19.3043 15.1934 18.6049 15.456C18.007 15.6874 17.464 16.0412 17.0106 16.4946C16.5572 16.948 16.2034 17.491 15.9719 18.089C15.7088 18.7881 15.5671 19.5271 15.5529 20.274C15.5099 21.237 15.4969 21.542 15.4969 23.984C15.4969 26.426 15.4969 26.738 15.5529 27.694C15.5679 28.442 15.7089 29.18 15.9719 29.881C16.2038 30.4787 16.5578 31.0215 17.0114 31.4747C17.4649 31.9279 18.008 32.2815 18.6059 32.513C19.3034 32.7862 20.0423 32.9383 20.7909 32.963C21.7539 33.006 22.0589 33.019 24.5009 33.019C26.9429 33.019 27.2559 33.019 28.2109 32.963C28.9581 32.9482 29.6973 32.8066 30.3969 32.544C30.9946 32.312 31.5375 31.9581 31.9908 31.5048C32.4441 31.0515 32.798 30.5086 33.0299 29.911C33.2929 29.211 33.4339 28.473 33.4489 27.724C33.4919 26.762 33.5049 26.457 33.5049 24.014C33.5029 21.572 33.5029 21.262 33.4469 20.305ZM24.4939 28.602C21.9399 28.602 19.8709 26.533 19.8709 23.979C19.8709 21.425 21.9399 19.356 24.4939 19.356C25.72 19.356 26.8959 19.843 27.7629 20.71C28.6299 21.577 29.1169 22.7529 29.1169 23.979C29.1169 25.2051 28.6299 26.3809 27.7629 27.2479C26.8959 28.1149 25.72 28.602 24.4939 28.602ZM29.3009 20.263C29.1593 20.2631 29.0191 20.2353 28.8883 20.1812C28.7574 20.127 28.6385 20.0476 28.5384 19.9475C28.4383 19.8474 28.3589 19.7285 28.3047 19.5976C28.2506 19.4668 28.2228 19.3266 28.2229 19.185C28.2229 19.0435 28.2508 18.9033 28.305 18.7726C28.3591 18.6419 28.4385 18.5231 28.5385 18.423C28.6386 18.323 28.7574 18.2436 28.8881 18.1895C29.0188 18.1353 29.1589 18.1075 29.3004 18.1075C29.4419 18.1075 29.5821 18.1353 29.7128 18.1895C29.8435 18.2436 29.9623 18.323 30.0624 18.423C30.1624 18.5231 30.2418 18.6419 30.2959 18.7726C30.3501 18.9033 30.3779 19.0435 30.3779 19.185C30.3779 19.781 29.8959 20.263 29.3009 20.263Z" fill="white"/>
<path d="M24.494 26.9821C26.1525 26.9821 27.497 25.6376 27.497 23.9791C27.497 22.3206 26.1525 20.9761 24.494 20.9761C22.8355 20.9761 21.491 22.3206 21.491 23.9791C21.491 25.6376 22.8355 26.9821 24.494 26.9821Z" fill="white"/>
<defs>
<filter id="filter0_bi_6811_86949" x="-7.5" y="-8" width="64" height="64" filterUnits="userSpaceOnUse" color-interpolation-filters="sRGB">
<feFlood flood-opacity="0" result="BackgroundImageFix"/>
<feGaussianBlur in="BackgroundImage" stdDeviation="4"/>
<feComposite in2="SourceAlpha" operator="in" result="effect1_backgroundBlur_6811_86949"/>
<feBlend mode="normal" in="SourceGraphic" in2="effect1_backgroundBlur_6811_86949" result="shape"/>
<feColorMatrix in="SourceAlpha" type="matrix" values="0 0 0 0 0 0 0 0 0 0 0 0 0 0 0 0 0 0 127 0" result="hardAlpha"/>
<feOffset dx="1" dy="1"/>
<feGaussianBlur stdDeviation="2"/>
<feComposite in2="hardAlpha" operator="arithmetic" k2="-1" k3="1"/>
<feColorMatrix type="matrix" values="0 0 0 0 1 0 0 0 0 1 0 0 0 0 1 0 0 0 1 0"/>
<feBlend mode="normal" in2="shape" result="effect2_innerShadow_6811_86949"/>
</filter>
<linearGradient id="paint0_linear_6811_86949" x1="44.5" y1="39.6" x2="0.499996" y2="5.2" gradientUnits="userSpaceOnUse">
<stop stop-color="white"/>
<stop offset="1" stop-color="white" stop-opacity="0.26"/>
</linearGradient>
<linearGradient id="paint1_linear_6811_86949" x1="4.76552" y1="5.88682" x2="52.9726" y2="6.74092" gradientUnits="userSpaceOnUse">
<stop stop-color="#FAC744"/>
<stop offset="0.505208" stop-color="#8B14EF"/>
<stop offset="1" stop-color="#3333FF"/>
</linearGradient>
<linearGradient id="paint2_linear_6811_86949" x1="44.5" y1="39.6" x2="14.1" y2="9.2" gradientUnits="userSpaceOnUse">
<stop stop-color="#3333FF"/>
<stop offset="1" stop-color="#101647" stop-opacity="0.24"/>
</linearGradient>
</defs>
</svg>
