<svg width="49" height="48" viewBox="0 0 49 48" fill="none" xmlns="http://www.w3.org/2000/svg">
<mask id="mask0_6811_86960" style="mask-type:alpha" maskUnits="userSpaceOnUse" x="0" y="0" width="49" height="48">
<rect x="0.5" width="48" height="48" rx="24" fill="#181D4B"/>
<rect x="0.5" width="48" height="48" rx="24" fill="url(#paint0_linear_6811_86960)" fill-opacity="0.52"/>
</mask>
<g mask="url(#mask0_6811_86960)">
<g filter="url(#filter0_bi_6811_86960)">
<rect x="0.5" width="48" height="48" rx="24" fill="url(#paint1_linear_6811_86960)" fill-opacity="0.12"/>
<rect x="0.8" y="0.3" width="47.4" height="47.4" rx="23.7" stroke="url(#paint2_linear_6811_86960)" stroke-width="0.6"/>
</g>
</g>
<path d="M16.872 19.264C16.8843 19.1423 16.8678 19.0194 16.8241 18.9051C16.7803 18.7908 16.7104 18.6884 16.62 18.606L14.752 16.339V16H20.55L25.032 25.905L28.972 16H34.5V16.339L32.903 17.88C32.8353 17.9322 32.7831 18.0019 32.7519 18.0815C32.7208 18.1611 32.7118 18.2477 32.726 18.332V29.666C32.7118 29.7503 32.7208 29.8369 32.7519 29.9165C32.7831 29.9961 32.8353 30.0658 32.903 30.118L34.463 31.66V32H26.619V31.661L28.235 30.081C28.394 29.921 28.394 29.874 28.394 29.63V20.468L23.902 31.962H23.296L18.066 20.468V28.172C18.023 28.495 18.13 28.822 18.356 29.056L20.457 31.624V31.962H14.5V31.624L16.6 29.056C16.7111 28.9401 16.7936 28.7997 16.8408 28.6462C16.888 28.4928 16.8987 28.3304 16.872 28.172V19.264Z" fill="white"/>
<defs>
<filter id="filter0_bi_6811_86960" x="-7.5" y="-8" width="64" height="64" filterUnits="userSpaceOnUse" color-interpolation-filters="sRGB">
<feFlood flood-opacity="0" result="BackgroundImageFix"/>
<feGaussianBlur in="BackgroundImage" stdDeviation="4"/>
<feComposite in2="SourceAlpha" operator="in" result="effect1_backgroundBlur_6811_86960"/>
<feBlend mode="normal" in="SourceGraphic" in2="effect1_backgroundBlur_6811_86960" result="shape"/>
<feColorMatrix in="SourceAlpha" type="matrix" values="0 0 0 0 0 0 0 0 0 0 0 0 0 0 0 0 0 0 127 0" result="hardAlpha"/>
<feOffset dx="1" dy="1"/>
<feGaussianBlur stdDeviation="2"/>
<feComposite in2="hardAlpha" operator="arithmetic" k2="-1" k3="1"/>
<feColorMatrix type="matrix" values="0 0 0 0 1 0 0 0 0 1 0 0 0 0 1 0 0 0 1 0"/>
<feBlend mode="normal" in2="shape" result="effect2_innerShadow_6811_86960"/>
</filter>
<linearGradient id="paint0_linear_6811_86960" x1="44.5" y1="39.6" x2="14.1" y2="9.2" gradientUnits="userSpaceOnUse">
<stop stop-color="#3333FF"/>
<stop offset="1" stop-color="#101647" stop-opacity="0.24"/>
</linearGradient>
<linearGradient id="paint1_linear_6811_86960" x1="44.5" y1="39.6" x2="0.499996" y2="5.2" gradientUnits="userSpaceOnUse">
<stop stop-color="white"/>
<stop offset="1" stop-color="white" stop-opacity="0.26"/>
</linearGradient>
<linearGradient id="paint2_linear_6811_86960" x1="4.76552" y1="5.88682" x2="52.9726" y2="6.74092" gradientUnits="userSpaceOnUse">
<stop stop-color="#FAC744"/>
<stop offset="0.505208" stop-color="#8B14EF"/>
<stop offset="1" stop-color="#3333FF"/>
</linearGradient>
</defs>
</svg>
