<svg width="49" height="48" viewBox="0 0 49 48" fill="none" xmlns="http://www.w3.org/2000/svg">
<g filter="url(#filter0_bi_6811_86955)">
<rect x="0.5" width="48" height="48" rx="24" fill="url(#paint0_linear_6811_86955)" fill-opacity="0.12"/>
<rect x="0.8" y="0.3" width="47.4" height="47.4" rx="23.7" stroke="url(#paint1_linear_6811_86955)" stroke-width="0.6"/>
</g>
<mask id="mask0_6811_86955" style="mask-type:alpha" maskUnits="userSpaceOnUse" x="0" y="0" width="49" height="48">
<rect x="0.5" width="48" height="48" rx="24" fill="#181D4B"/>
<rect x="0.5" width="48" height="48" rx="24" fill="url(#paint2_linear_6811_86955)" fill-opacity="0.52"/>
</mask>
<g mask="url(#mask0_6811_86955)">
</g>
<path d="M32.09 18.69C31.0932 18.4708 30.1914 17.9414 29.5141 17.1779C28.8368 16.4143 28.4188 15.4559 28.32 14.44V14H24.87V27.67C24.8707 28.2766 24.6806 28.868 24.3265 29.3604C23.9724 29.8529 23.4723 30.2215 22.8971 30.414C22.3219 30.6065 21.7007 30.6131 21.1215 30.4329C20.5423 30.2527 20.0345 29.8948 19.67 29.41C19.3435 28.9808 19.1435 28.4689 19.0928 27.932C19.042 27.3951 19.1425 26.8548 19.3828 26.372C19.6231 25.8892 19.9938 25.4834 20.4527 25.2003C20.9117 24.9172 21.4408 24.7681 21.98 24.77C22.2783 24.7683 22.575 24.8121 22.86 24.9V21.4C22.5284 21.3589 22.1941 21.3422 21.86 21.35C20.6293 21.3829 19.4349 21.7739 18.4231 22.4753C17.4113 23.1766 16.6259 24.1578 16.1632 25.2986C15.7005 26.4395 15.5805 27.6905 15.8179 28.8986C16.0554 30.1066 16.6399 31.2191 17.5 32.1C18.3815 32.9962 19.5095 33.6101 20.7407 33.8638C21.9719 34.1175 23.2507 33.9994 24.4147 33.5246C25.5786 33.0498 26.5752 32.2397 27.2776 31.1973C27.9801 30.1548 28.3569 28.9271 28.36 27.67V20.67C29.7515 21.6639 31.42 22.1956 33.13 22.19V18.79C32.7941 18.7914 32.459 18.7579 32.13 18.69H32.09Z" fill="white"/>
<defs>
<filter id="filter0_bi_6811_86955" x="-7.5" y="-8" width="64" height="64" filterUnits="userSpaceOnUse" color-interpolation-filters="sRGB">
<feFlood flood-opacity="0" result="BackgroundImageFix"/>
<feGaussianBlur in="BackgroundImage" stdDeviation="4"/>
<feComposite in2="SourceAlpha" operator="in" result="effect1_backgroundBlur_6811_86955"/>
<feBlend mode="normal" in="SourceGraphic" in2="effect1_backgroundBlur_6811_86955" result="shape"/>
<feColorMatrix in="SourceAlpha" type="matrix" values="0 0 0 0 0 0 0 0 0 0 0 0 0 0 0 0 0 0 127 0" result="hardAlpha"/>
<feOffset dx="1" dy="1"/>
<feGaussianBlur stdDeviation="2"/>
<feComposite in2="hardAlpha" operator="arithmetic" k2="-1" k3="1"/>
<feColorMatrix type="matrix" values="0 0 0 0 1 0 0 0 0 1 0 0 0 0 1 0 0 0 1 0"/>
<feBlend mode="normal" in2="shape" result="effect2_innerShadow_6811_86955"/>
</filter>
<linearGradient id="paint0_linear_6811_86955" x1="44.5" y1="39.6" x2="0.499996" y2="5.2" gradientUnits="userSpaceOnUse">
<stop stop-color="white"/>
<stop offset="1" stop-color="white" stop-opacity="0.26"/>
</linearGradient>
<linearGradient id="paint1_linear_6811_86955" x1="4.76552" y1="5.88682" x2="52.9726" y2="6.74092" gradientUnits="userSpaceOnUse">
<stop stop-color="#FAC744"/>
<stop offset="0.505208" stop-color="#8B14EF"/>
<stop offset="1" stop-color="#3333FF"/>
</linearGradient>
<linearGradient id="paint2_linear_6811_86955" x1="44.5" y1="39.6" x2="14.1" y2="9.2" gradientUnits="userSpaceOnUse">
<stop stop-color="#3333FF"/>
<stop offset="1" stop-color="#101647" stop-opacity="0.24"/>
</linearGradient>
</defs>
</svg>
