<svg width="49" height="48" viewBox="0 0 49 48" fill="none" xmlns="http://www.w3.org/2000/svg">
<g filter="url(#filter0_bi_6811_86943)">
<rect x="0.5" width="48" height="48" rx="24" fill="url(#paint0_linear_6811_86943)" fill-opacity="0.12"/>
<rect x="0.8" y="0.3" width="47.4" height="47.4" rx="23.7" stroke="url(#paint1_linear_6811_86943)" stroke-width="0.6"/>
</g>
<mask id="mask0_6811_86943" style="mask-type:alpha" maskUnits="userSpaceOnUse" x="0" y="0" width="49" height="48">
<rect x="0.5" width="48" height="48" rx="24" fill="#181D4B"/>
<rect x="0.5" width="48" height="48" rx="24" fill="url(#paint2_linear_6811_86943)" fill-opacity="0.52"/>
</mask>
<g mask="url(#mask0_6811_86943)">
</g>
<g clip-path="url(#clip0_6811_86943)">
<path d="M36.143 16.9371C35.308 17.3071 34.411 17.5571 33.468 17.6701C34.441 17.0879 35.169 16.1715 35.516 15.0921C34.6019 15.6351 33.6014 16.0173 32.558 16.2221C31.8564 15.4729 30.9271 14.9764 29.9143 14.8096C28.9016 14.6427 27.8621 14.8149 26.9572 15.2993C26.0524 15.7838 25.3328 16.5534 24.9102 17.4888C24.4875 18.4241 24.3855 19.4728 24.62 20.4721C22.7677 20.3791 20.9556 19.8976 19.3014 19.059C17.6472 18.2203 16.1879 17.0432 15.018 15.6041C14.618 16.2941 14.388 17.0941 14.388 17.9461C14.3876 18.7131 14.5764 19.4683 14.9379 20.1448C15.2993 20.8213 15.8222 21.3981 16.46 21.8241C15.7203 21.8005 14.9969 21.6007 14.35 21.2411V21.3011C14.3499 22.3768 14.722 23.4195 15.4032 24.2521C16.0843 25.0847 17.0326 25.656 18.087 25.8691C17.4008 26.0548 16.6813 26.0821 15.983 25.9491C16.2805 26.8747 16.86 27.6841 17.6404 28.264C18.4208 28.8439 19.3629 29.1653 20.335 29.1831C18.6848 30.4785 16.6469 31.1812 14.549 31.1781C14.1774 31.1782 13.8061 31.1565 13.437 31.1131C15.5665 32.4823 18.0454 33.2089 20.577 33.2061C29.147 33.2061 33.832 26.1081 33.832 19.9521C33.832 19.7521 33.827 19.5501 33.818 19.3501C34.7293 18.6911 35.5159 17.875 36.141 16.9401L36.143 16.9371Z" fill="white"/>
</g>
<defs>
<filter id="filter0_bi_6811_86943" x="-7.5" y="-8" width="64" height="64" filterUnits="userSpaceOnUse" color-interpolation-filters="sRGB">
<feFlood flood-opacity="0" result="BackgroundImageFix"/>
<feGaussianBlur in="BackgroundImage" stdDeviation="4"/>
<feComposite in2="SourceAlpha" operator="in" result="effect1_backgroundBlur_6811_86943"/>
<feBlend mode="normal" in="SourceGraphic" in2="effect1_backgroundBlur_6811_86943" result="shape"/>
<feColorMatrix in="SourceAlpha" type="matrix" values="0 0 0 0 0 0 0 0 0 0 0 0 0 0 0 0 0 0 127 0" result="hardAlpha"/>
<feOffset dx="1" dy="1"/>
<feGaussianBlur stdDeviation="2"/>
<feComposite in2="hardAlpha" operator="arithmetic" k2="-1" k3="1"/>
<feColorMatrix type="matrix" values="0 0 0 0 1 0 0 0 0 1 0 0 0 0 1 0 0 0 1 0"/>
<feBlend mode="normal" in2="shape" result="effect2_innerShadow_6811_86943"/>
</filter>
<linearGradient id="paint0_linear_6811_86943" x1="44.5" y1="39.6" x2="0.499996" y2="5.2" gradientUnits="userSpaceOnUse">
<stop stop-color="white"/>
<stop offset="1" stop-color="white" stop-opacity="0.26"/>
</linearGradient>
<linearGradient id="paint1_linear_6811_86943" x1="4.76552" y1="5.88682" x2="52.9726" y2="6.74092" gradientUnits="userSpaceOnUse">
<stop stop-color="#FAC744"/>
<stop offset="0.505208" stop-color="#8B14EF"/>
<stop offset="1" stop-color="#3333FF"/>
</linearGradient>
<linearGradient id="paint2_linear_6811_86943" x1="44.5" y1="39.6" x2="14.1" y2="9.2" gradientUnits="userSpaceOnUse">
<stop stop-color="#3333FF"/>
<stop offset="1" stop-color="#101647" stop-opacity="0.24"/>
</linearGradient>
<clipPath id="clip0_6811_86943">
<rect width="24" height="24" fill="white" transform="translate(12.5 12)"/>
</clipPath>
</defs>
</svg>
